<?xml version="1.0" encoding="utf-8"?>
<!-- Generator: Adobe Illustrator 16.0.0, SVG Export Plug-In . SVG Version: 6.00 Build 0)  -->
<!DOCTYPE svg PUBLIC "-//W3C//DTD SVG 1.1//EN" "http://www.w3.org/Graphics/SVG/1.1/DTD/svg11.dtd">
<svg version="1.1" id="Layer_4" xmlns="http://www.w3.org/2000/svg" xmlns:xlink="http://www.w3.org/1999/xlink" x="0px" y="0px"
	 width="540.75px" height="89.25px" viewBox="0 0 540.75 89.25" enable-background="new 0 0 540.75 89.25" xml:space="preserve">
<g id="XMLID_6_">
	<path id="XMLID_3_" fill="#757575" d="M140.095,46.275c0,8.127-2.401,14.63-7.24,19.469c-5.467,5.763-12.597,8.645-21.389,8.645
		c-8.422,0-15.552-2.919-21.462-8.755c-5.874-5.836-8.829-13.077-8.829-21.684c0-8.607,2.956-15.848,8.829-21.684
		s13.04-8.755,21.462-8.755c4.175,0,8.165,0.813,11.969,2.438c3.805,1.627,6.834,3.805,9.124,6.502l-5.134,5.135
		c-3.878-4.654-9.198-6.943-15.995-6.943c-6.132,0-11.452,2.143-15.921,6.463c-4.47,4.322-6.724,9.901-6.724,16.808
		c0,6.908,2.253,12.484,6.724,16.809c4.47,4.32,9.789,6.463,15.921,6.463c6.501,0,11.932-2.179,16.291-6.5
		c2.807-2.81,4.433-6.762,4.876-11.785H111.43v-7.019h28.222C139.948,43.396,140.095,44.873,140.095,46.275L140.095,46.275z"/>
	<path id="XMLID_20_" fill="#757575" d="M147.631,73.061V14.767h17.805c8.94,0,16.106,2.698,21.5,8.092
		c5.356,5.393,8.052,12.412,8.052,21.055c0,8.645-2.697,15.626-8.052,21.055c-5.356,5.396-12.522,8.092-21.5,8.092H147.631
		L147.631,73.061z M155.13,65.893h10.344c6.724,0,12.042-1.92,15.995-5.763c3.915-3.842,5.91-9.235,5.91-16.18
		c0-6.908-1.959-12.264-5.91-16.143c-3.953-3.879-9.272-5.837-15.995-5.837h-10.343L155.13,65.893L155.13,65.893z"/>
	<path id="XMLID_23_" fill="#757575" d="M258.71,46.275c0,8.127-2.4,14.63-7.24,19.469c-5.467,5.763-12.597,8.645-21.389,8.645
		c-8.423,0-15.552-2.919-21.462-8.755c-5.874-5.836-8.829-13.077-8.829-21.684c0-8.607,2.955-15.848,8.829-21.684
		c5.875-5.837,13.04-8.755,21.462-8.755c4.175,0,8.165,0.813,11.968,2.438c3.806,1.627,6.836,3.805,9.125,6.502l-5.135,5.135
		c-3.879-4.654-9.198-6.943-15.995-6.943c-6.133,0-11.452,2.143-15.921,6.463c-4.471,4.322-6.724,9.901-6.724,16.808
		c0,6.908,2.253,12.484,6.724,16.809c4.469,4.32,9.788,6.463,15.921,6.463c6.501,0,11.931-2.179,16.29-6.5
		c2.808-2.81,4.433-6.762,4.876-11.785h-21.166v-7.019h28.223C258.563,43.396,258.71,44.873,258.71,46.275L258.71,46.275z"/>
	<g>
		<path fill="#757575" d="M286.335,73.043V16.551h7.259v49.551h24.459v6.941H286.335z"/>
		<path fill="#757575" d="M327.757,38.997c3.734-3.918,8.494-5.877,14.28-5.877s10.546,1.959,14.281,5.877
			c3.734,3.92,5.604,8.825,5.604,14.716c0,5.893-1.868,10.797-5.604,14.714c-3.735,3.921-8.495,5.878-14.281,5.878
			s-10.546-1.959-14.28-5.878c-3.735-3.917-5.603-8.821-5.603-14.714C322.155,47.822,324.021,42.917,327.757,38.997z
			 M333.161,63.852c2.498,2.553,5.456,3.825,8.876,3.825c3.419,0,6.378-1.274,8.876-3.825c2.498-2.552,3.748-5.932,3.748-10.139
			c0-4.208-1.25-7.587-3.748-10.139c-2.498-2.552-5.457-3.827-8.876-3.827c-3.42,0-6.378,1.275-8.876,3.827
			c-2.499,2.552-3.747,5.931-3.747,10.139S330.662,61.3,333.161,63.852z"/>
		<path fill="#757575" d="M374.703,34.382v5.365h0.314c1.053-1.841,2.708-3.405,4.972-4.695c2.261-1.287,4.681-1.932,7.259-1.932
			c4.785,0,8.443,1.473,10.968,4.418c2.525,2.946,3.787,6.892,3.787,11.835v23.67h-7.259V50.479c0-7.152-3.185-10.729-9.547-10.729
			c-3,0-5.444,1.196-7.338,3.589c-1.895,2.396-2.842,5.169-2.842,8.324v21.383h-7.259V34.383L374.703,34.382L374.703,34.382z"/>
		<path fill="#757575" d="M426.697,74.307c-4.998,0-9.311-1.974-12.939-5.918c-3.63-3.945-5.443-8.837-5.443-14.675
			c0-5.839,1.814-10.73,5.443-14.676c3.63-3.944,7.941-5.917,12.939-5.917c2.944,0,5.589,0.632,7.931,1.894
			c2.34,1.263,4.09,2.84,5.246,4.734h0.313l-0.313-5.365V16.552h7.259v56.492h-6.943v-5.362h-0.314
			c-1.158,1.893-2.907,3.471-5.246,4.731C432.286,73.675,429.643,74.307,426.697,74.307z M427.881,67.68
			c3.417,0,6.322-1.265,8.718-3.789c2.395-2.524,3.591-5.918,3.591-10.178c0-4.261-1.196-7.654-3.591-10.179
			c-2.396-2.524-5.301-3.787-8.718-3.787c-3.367,0-6.261,1.275-8.68,3.827c-2.421,2.552-3.63,5.931-3.63,10.139
			c0,4.207,1.209,7.587,3.63,10.139C421.62,66.402,424.514,67.68,427.881,67.68z"/>
		<path fill="#757575" d="M458.967,38.997c3.735-3.918,8.494-5.877,14.282-5.877c5.785,0,10.545,1.959,14.281,5.877
			c3.732,3.92,5.602,8.825,5.602,14.716c0,5.893-1.868,10.797-5.602,14.714c-3.736,3.921-8.496,5.878-14.281,5.878
			c-5.788,0-10.547-1.959-14.282-5.878c-3.734-3.917-5.602-8.821-5.602-14.714C453.365,47.822,455.23,42.917,458.967,38.997z
			 M464.37,63.852c2.499,2.553,5.458,3.825,8.877,3.825s6.377-1.274,8.876-3.825c2.498-2.552,3.748-5.932,3.748-10.139
			c0-4.208-1.25-7.587-3.748-10.139c-2.499-2.552-5.457-3.827-8.876-3.827s-6.378,1.275-8.877,3.827
			c-2.498,2.552-3.746,5.931-3.746,10.139S461.873,61.3,464.37,63.852z"/>
		<path fill="#757575" d="M505.913,34.382v5.365h0.315c1.053-1.841,2.707-3.405,4.972-4.695c2.261-1.287,4.681-1.932,7.259-1.932
			c4.784,0,8.442,1.473,10.967,4.418c2.525,2.946,3.787,6.892,3.787,11.835v23.67h-7.259V50.479c0-7.152-3.183-10.729-9.547-10.729
			c-2.999,0-5.443,1.196-7.337,3.589c-1.896,2.396-2.842,5.169-2.842,8.324v21.383h-7.259V34.383L505.913,34.382L505.913,34.382z"/>
	</g>
</g>
<g id="XMLID_60_">
	<g id="XMLID_61_">
		<g id="XMLID_62_">
			<path id="XMLID_106_" fill="none" d="M51.947,41.175L32.661,7.825H6.873l21.287,36.8L6.873,81.426h25.789l19.286-33.352
				C53.184,45.941,53.184,43.309,51.947,41.175z"/>
			<polygon id="XMLID_105_" fill="#FFC107" points="40.884,66.63 34.772,56.056 20.098,81.426 32.661,81.426 41.051,66.917 			"/>
			<path id="XMLID_104_" fill="none" d="M51.947,41.175L32.661,7.825H6.873l21.287,36.8L6.873,81.426h25.789l19.286-33.352
				C53.184,45.941,53.184,43.309,51.947,41.175z"/>
			<polygon id="XMLID_103_" fill="#0F9D58" points="28.159,44.625 34.772,56.056 20.098,81.426 6.873,81.426 			"/>
			<path id="XMLID_102_" fill="none" d="M51.947,41.175L32.661,7.825H6.873l21.287,36.8L6.873,81.426h25.789l19.286-33.352
				C53.184,45.941,53.184,43.309,51.947,41.175z"/>
			<polygon id="XMLID_101_" opacity="0.2" fill="#BF360C" enable-background="new    " points="32.661,80.849 20.431,80.849 
				20.098,81.426 32.661,81.426 41.051,66.917 40.884,66.63 			"/>
			<path id="XMLID_100_" fill="none" d="M51.947,41.175L32.661,7.825H6.873l21.287,36.8L6.873,81.426h25.789l19.286-33.352
				C53.184,45.941,53.184,43.309,51.947,41.175z"/>
			<polygon id="XMLID_99_" opacity="0.2" fill="#263238" enable-background="new    " points="7.207,80.849 6.873,81.426 
				20.098,81.426 20.431,80.849 			"/>
			<path id="XMLID_98_" fill="none" d="M51.947,41.175L32.661,7.825H6.873l21.287,36.8L6.873,81.426h25.789l19.286-33.352
				C53.184,45.941,53.184,43.309,51.947,41.175z"/>
			<polygon id="XMLID_96_" opacity="0.2" fill="#FFFFFF" enable-background="new    " points="6.873,81.426 7.207,81.426 
				28.326,44.913 28.159,44.625 			"/>
			<path id="XMLID_94_" fill="none" d="M51.947,41.175L32.661,7.825H6.873l21.287,36.8L6.873,81.426h25.789l19.286-33.352
				C53.184,45.941,53.184,43.309,51.947,41.175z"/>
			
				<radialGradient id="XMLID_2_" cx="-388.0425" cy="1984.7471" r="25.4408" gradientTransform="matrix(1 0 0 -1 429 2051.4375)" gradientUnits="userSpaceOnUse">
				<stop  offset="0" style="stop-color:#BF360C;stop-opacity:0.2"/>
				<stop  offset="1" style="stop-color:#BF360C;stop-opacity:0.02"/>
			</radialGradient>
			<polygon id="XMLID_92_" fill="url(#XMLID_2_)" points="41.051,66.917 41.051,66.917 34.772,56.056 33.231,58.718 			"/>
			<path id="XMLID_90_" fill="none" d="M51.947,41.175L32.661,7.825H6.873l21.287,36.8L6.873,81.426h25.789l19.286-33.352
				C53.184,45.941,53.184,43.309,51.947,41.175z"/>
			
				<radialGradient id="XMLID_4_" cx="-388.1152" cy="1984.5869" r="25.6578" gradientTransform="matrix(1 0 0 -1 429 2051.4375)" gradientUnits="userSpaceOnUse">
				<stop  offset="0" style="stop-color:#263238;stop-opacity:0.2"/>
				<stop  offset="1" style="stop-color:#263238;stop-opacity:0.02"/>
			</radialGradient>
			<polygon id="XMLID_89_" fill="url(#XMLID_4_)" points="33.231,58.718 34.772,56.056 28.159,44.625 25.002,50.088 			"/>
			<path id="XMLID_88_" fill="none" d="M51.947,41.175L32.661,7.825H6.873l21.287,36.8L6.873,81.426h25.789l19.286-33.352
				C53.184,45.941,53.184,43.309,51.947,41.175z"/>
			<g id="XMLID_85_">
				<g id="XMLID_86_">
					<polygon id="XMLID_87_" fill="#4285F4" points="20.098,7.825 6.873,7.825 41.051,66.917 47.657,55.493 47.663,55.48 					"/>
				</g>
			</g>
			<path id="XMLID_84_" fill="none" d="M51.947,41.175L32.661,7.825H6.873l21.287,36.8L6.873,81.426h25.789l19.286-33.352
				C53.184,45.941,53.184,43.309,51.947,41.175z"/>
			<path id="XMLID_83_" fill="#DB4437" d="M51.947,48.074c1.236-2.133,1.236-4.766,0-6.899L32.661,7.825H20.098L47.663,55.48
				L51.947,48.074z"/>
			<path id="XMLID_82_" fill="none" d="M51.947,41.175L32.661,7.825H6.873l21.287,36.8L6.873,81.426h25.789l19.286-33.352
				C53.184,45.941,53.184,43.309,51.947,41.175z"/>
			<polygon id="XMLID_71_" opacity="0.2" fill="#1A237E" enable-background="new    " points="47.663,55.48 47.497,55.198 
				41.051,66.343 7.207,7.825 6.873,7.825 41.051,66.917 47.657,55.493 			"/>
			<path id="XMLID_69_" fill="none" d="M51.947,41.175L32.661,7.825H6.873l21.287,36.8L6.873,81.426h25.789l19.286-33.352
				C53.184,45.941,53.184,43.309,51.947,41.175z"/>
			<path id="XMLID_67_" opacity="0.2" fill="#FFFFFF" enable-background="new    " d="M32.661,8.4l19.286,33.35
				c0.569,0.983,0.862,2.07,0.909,3.163c0.051-1.289-0.242-2.587-0.909-3.738L32.661,7.825H6.873L7.207,8.4H32.661z"/>
			<path id="XMLID_66_" fill="none" d="M51.947,41.175L32.661,7.825H6.873l21.287,36.8L6.873,81.426h25.789l19.286-33.352
				C53.184,45.941,53.184,43.309,51.947,41.175z"/>
			<path id="XMLID_65_" opacity="0.2" fill="#3E2723" enable-background="new    " d="M47.663,55.48l4.284-7.406
				c0.667-1.149,0.96-2.448,0.909-3.737c-0.046,1.092-0.34,2.18-0.909,3.163l-4.451,7.698L47.663,55.48z"/>
			<path id="XMLID_64_" fill="none" d="M51.947,41.175L32.661,7.825H6.873l21.287,36.8L6.873,81.426h25.789l19.286-33.352
				C53.184,45.941,53.184,43.309,51.947,41.175z"/>
			
				<radialGradient id="XMLID_5_" cx="-422.7026" cy="2043.0381" r="77.2523" gradientTransform="matrix(1 0 0 -1 429 2051.4375)" gradientUnits="userSpaceOnUse">
				<stop  offset="0" style="stop-color:#FFFFFF;stop-opacity:0.1"/>
				<stop  offset="1" style="stop-color:#FFFFFF;stop-opacity:0"/>
			</radialGradient>
			<path id="XMLID_63_" fill="url(#XMLID_5_)" d="M51.947,41.175L32.661,7.825H6.873l21.287,36.8L6.873,81.426h25.789l19.286-33.352
				C53.184,45.941,53.184,43.309,51.947,41.175z"/>
		</g>
	</g>
</g>
</svg>
