<?xml version="1.0" encoding="utf-8"?>
<!-- Generator: Adobe Illustrator 16.0.0, SVG Export Plug-In . SVG Version: 6.00 Build 0)  -->
<!DOCTYPE svg PUBLIC "-//W3C//DTD SVG 1.1//EN" "http://www.w3.org/Graphics/SVG/1.1/DTD/svg11.dtd">
<svg version="1.1" id="Layer_4" xmlns="http://www.w3.org/2000/svg" xmlns:xlink="http://www.w3.org/1999/xlink" x="0px" y="0px"
	 width="1024px" height="1024px" viewBox="0 0 1024 1024" enable-background="new 0 0 1024 1024" xml:space="preserve">
<g>
	<path fill="#FFFFFF" d="M320.794,451.181c0,12.958-3.845,23.282-11.532,30.968c-8.727,9.157-20.084,13.736-34.079,13.736
		c-13.391,0-24.771-4.644-34.144-13.929c-9.374-9.285-14.059-20.798-14.059-34.532c0-13.735,4.685-25.246,14.059-34.533
		c9.372-9.285,20.752-13.928,34.144-13.928c6.651,0,13,1.296,19.048,3.887c6.045,2.592,10.884,6.049,14.512,10.368l-8.163,8.163
		c-6.135-7.343-14.6-11.014-25.397-11.014c-9.763,0-18.206,3.432-25.333,10.299s-10.69,15.789-10.69,26.757
		c0,10.972,3.563,19.891,10.69,26.758c7.127,6.868,15.57,10.302,25.333,10.302c10.366,0,19.003-3.454,25.916-10.368
		c4.49-4.491,7.082-10.755,7.774-18.787h-33.69v-11.146h44.963C320.577,446.604,320.794,448.936,320.794,451.181z"/>
	<path fill="#FFFFFF" d="M332.611,493.812v-92.778h28.378c14.253,0,25.656,4.298,34.208,12.893
		c8.552,8.597,12.828,19.761,12.828,33.496c0,13.734-4.276,24.9-12.828,33.495c-8.552,8.599-19.955,12.895-34.208,12.895
		L332.611,493.812L332.611,493.812z M344.532,482.409h16.457c10.71,0,19.197-3.065,25.462-9.2
		c6.262-6.133,9.395-14.728,9.395-25.787c0-10.97-3.133-19.544-9.395-25.722c-6.265-6.175-14.752-9.265-25.462-9.265h-16.457
		V482.409z"/>
	<path fill="#FFFFFF" d="M509.224,451.181c0,12.958-3.845,23.282-11.532,30.968c-8.727,9.157-20.085,13.736-34.079,13.736
		c-13.391,0-24.771-4.644-34.144-13.929c-9.374-9.285-14.06-20.798-14.06-34.532c0-13.735,4.686-25.246,14.06-34.533
		c9.372-9.285,20.753-13.928,34.144-13.928c6.651,0,13,1.296,19.048,3.887c6.046,2.592,10.885,6.049,14.513,10.368l-8.163,8.163
		c-6.135-7.343-14.6-11.014-25.397-11.014c-9.763,0-18.206,3.432-25.332,10.299c-7.127,6.868-10.69,15.789-10.69,26.757
		c0,10.972,3.563,19.891,10.69,26.758c7.126,6.868,15.569,10.302,25.332,10.302c10.366,0,19.003-3.454,25.915-10.368
		c4.491-4.491,7.082-10.755,7.775-18.787h-33.69v-11.146h44.963C509.007,446.604,509.224,448.936,509.224,451.181z"/>
	<path fill="#FFFFFF" d="M552.241,493.812v-92.778h28.377c14.256,0,25.654,4.298,34.209,12.893
		c8.55,8.597,12.828,19.761,12.828,33.496c0,13.734-4.278,24.9-12.828,33.495c-8.551,8.599-19.953,12.895-34.209,12.895
		L552.241,493.812L552.241,493.812z M564.164,482.409h16.454c10.713,0,19.198-3.065,25.464-9.2
		c6.263-6.133,9.393-14.728,9.393-25.787c0-10.97-3.13-19.544-9.393-25.722c-6.266-6.175-14.751-9.265-25.464-9.265h-16.454V482.409
		z"/>
	<path fill="#FFFFFF" d="M666.669,495.885c-9.589,0-17.388-3.196-23.389-9.59c-6.005-6.393-9.006-14.467-9.006-24.231
		c0-9.242,2.914-17.189,8.747-23.842c5.83-6.651,13.283-9.978,22.354-9.978c9.414,0,16.952,3.065,22.611,9.2
		c5.655,6.133,8.485,14.34,8.485,24.619l-0.13,2.203h-50.146c0.349,6.394,2.484,11.447,6.414,15.158
		c3.93,3.716,8.532,5.572,13.8,5.572c8.555,0,14.339-3.628,17.365-10.885l10.626,4.406c-2.075,4.924-5.488,9.052-10.238,12.376
		S673.577,495.885,666.669,495.885z M683.773,454.421c-0.258-3.629-1.924-7.083-4.985-10.366c-3.069-3.282-7.625-4.924-13.674-4.924
		c-4.404,0-8.225,1.383-11.464,4.145c-3.24,2.766-5.467,6.479-6.674,11.146H683.773z"/>
	<path fill="#FFFFFF" d="M721.519,493.812l-25.656-63.493h12.958l18.659,49.241h0.257l18.92-49.241h12.697l-25.915,63.494
		L721.519,493.812L721.519,493.812z"/>
	<path fill="#FFFFFF" d="M778.288,493.812h-11.923v-92.778h54.16v11.403H778.29v30.451h38.092v11.145H778.29v39.779H778.288z"/>
	<path fill="#FFFFFF" d="M856.509,495.885c-9.589,0-17.388-3.196-23.389-9.59c-6.005-6.393-9.006-14.467-9.006-24.231
		c0-9.242,2.917-17.189,8.746-23.842c5.831-6.651,13.284-9.978,22.354-9.978c9.414,0,16.952,3.065,22.611,9.2
		c5.658,6.135,8.485,14.34,8.485,24.619l-0.126,2.203h-50.146c0.344,6.394,2.484,11.447,6.414,15.158
		c3.93,3.716,8.528,5.572,13.8,5.572c8.55,0,14.339-3.628,17.365-10.885l10.622,4.406c-2.071,4.924-5.488,9.052-10.235,12.376
		C869.248,494.221,863.417,495.885,856.509,495.885z M873.612,454.421c-0.261-3.629-1.923-7.083-4.988-10.366
		c-3.065-3.284-7.625-4.924-13.671-4.924c-4.403,0-8.228,1.383-11.467,4.145c-3.24,2.766-5.463,6.479-6.672,11.146H873.612z"/>
	<path fill="#FFFFFF" d="M917.941,495.885c-7.083,0-12.936-1.73-17.557-5.185c-4.623-3.452-8.015-7.772-10.173-12.958l10.625-4.405
		c3.369,7.948,9.114,11.921,17.235,11.921c3.714,0,6.757-0.819,9.137-2.462c2.375-1.64,3.565-3.8,3.565-6.479
		c0-4.146-2.895-6.953-8.68-8.423l-12.833-3.107c-4.06-1.037-7.904-3.001-11.531-5.896c-3.63-2.891-5.44-6.803-5.44-11.727
		c0-5.614,2.48-10.172,7.447-13.67c4.969-3.501,10.864-5.248,17.691-5.248c5.61,0,10.621,1.273,15.028,3.82
		c4.408,2.549,7.561,6.201,9.458,10.949l-10.366,4.278c-2.336-5.614-7.174-8.425-14.513-8.425c-3.543,0-6.525,0.735-8.941,2.203
		c-2.423,1.47-3.63,3.456-3.63,5.961c0,3.628,2.807,6.09,8.425,7.386l12.567,2.98c5.962,1.383,10.369,3.756,13.219,7.126
		c2.852,3.369,4.277,7.172,4.277,11.403c0,5.701-2.332,10.451-6.995,14.253C931.285,493.984,925.284,495.885,917.941,495.885z"/>
	<path fill="#FFFFFF" d="M978.8,494.849c-6.653,0-11.725-1.77-15.226-5.312c-3.5-3.541-5.246-8.553-5.246-15.031v-33.301h-11.146
		v-10.885h11.146v-19.437h11.92v19.437h15.545v10.886h-15.545V473.6c0,6.91,2.849,10.366,8.55,10.366
		c2.158,0,3.973-0.344,5.44-1.036l4.146,10.234C985.799,494.286,982.604,494.849,978.8,494.849z"/>
	<path fill="#FFFFFF" d="M231.516,615.984v-92.777h11.921v81.375h40.169v11.402H231.516z"/>
	<path fill="#FFFFFF" d="M295.706,560.072c6.133-6.437,13.95-9.653,23.453-9.653c9.502,0,17.319,3.217,23.454,9.653
		c6.133,6.437,9.199,14.492,9.199,24.166c0,9.676-3.066,17.731-9.199,24.166c-6.135,6.438-13.952,9.655-23.454,9.655
		c-9.503,0-17.32-3.217-23.453-9.655c-6.134-6.435-9.2-14.49-9.2-24.166C286.506,574.564,289.572,566.509,295.706,560.072z
		 M304.582,600.889c4.103,4.191,8.961,6.285,14.577,6.285c5.615,0,10.474-2.094,14.578-6.285c4.102-4.188,6.154-9.738,6.154-16.65
		c0-6.91-2.053-12.458-6.154-16.65c-4.104-4.189-8.963-6.285-14.578-6.285c-5.616,0-10.475,2.096-14.577,6.285
		c-4.104,4.192-6.154,9.74-6.154,16.65C298.428,591.15,300.479,596.7,304.582,600.889z"/>
	<path fill="#FFFFFF" d="M371.742,552.492v8.812h0.518c1.728-3.022,4.449-5.592,8.164-7.71c3.713-2.117,7.688-3.174,11.921-3.174
		c7.86,0,13.865,2.419,18.011,7.256c4.146,4.837,6.221,11.315,6.221,19.437v38.873h-11.922v-37.061
		c0-11.747-5.228-17.623-15.679-17.623c-4.924,0-8.94,1.967-12.051,5.896c-3.109,3.932-4.665,8.487-4.665,13.67v35.117h-11.921
		v-63.494H371.742z"/>
	<path fill="#FFFFFF" d="M454.825,618.058c-8.208,0-15.29-3.239-21.251-9.718c-5.961-6.479-8.94-14.515-8.94-24.104
		s2.979-17.622,8.94-24.102c5.961-6.479,13.043-9.718,21.251-9.718c4.837,0,9.178,1.036,13.022,3.109
		c3.843,2.073,6.716,4.665,8.617,7.775h0.518l-0.518-8.813v-29.281h11.921v92.777h-11.403v-8.811h-0.518
		c-1.901,3.111-4.774,5.701-8.617,7.774C464.003,617.021,459.662,618.058,454.825,618.058z M456.769,607.174
		c5.614,0,10.387-2.071,14.318-6.218c3.93-4.146,5.896-9.719,5.896-16.716s-1.966-12.569-5.896-16.716
		c-3.932-4.145-8.704-6.218-14.318-6.218c-5.529,0-10.281,2.096-14.253,6.285c-3.975,4.192-5.961,9.74-5.961,16.65
		c0,6.912,1.986,12.462,5.961,16.65C446.487,605.08,451.239,607.174,456.769,607.174z"/>
	<path fill="#FFFFFF" d="M506.189,560.072c6.133-6.437,13.95-9.653,23.453-9.653c9.502,0,17.317,3.217,23.454,9.653
		c6.131,6.437,9.198,14.492,9.198,24.166c0,9.676-3.066,17.731-9.198,24.166c-6.135,6.438-13.952,9.655-23.454,9.655
		c-9.505,0-17.32-3.217-23.453-9.655c-6.135-6.435-9.2-14.49-9.2-24.166C496.987,574.564,500.053,566.509,506.189,560.072z
		 M515.067,600.889c4.1,4.191,8.959,6.285,14.577,6.285c5.612,0,10.472-2.094,14.577-6.285c4.101-4.188,6.153-9.738,6.153-16.65
		c0-6.91-2.053-12.458-6.153-16.65c-4.105-4.189-8.965-6.285-14.577-6.285c-5.618,0-10.478,2.096-14.577,6.285
		c-4.105,4.192-6.157,9.74-6.157,16.65C508.908,591.15,510.96,596.7,515.067,600.889z"/>
	<path fill="#FFFFFF" d="M582.224,552.492v8.812h0.517c1.729-3.022,4.449-5.592,8.163-7.71c3.713-2.117,7.689-3.174,11.923-3.174
		c7.859,0,13.865,2.419,18.01,7.256c4.146,4.837,6.221,11.315,6.221,19.437v38.873h-11.923v-37.061
		c0-11.747-5.224-17.623-15.677-17.623c-4.924,0-8.94,1.967-12.051,5.896c-3.109,3.932-4.666,8.487-4.666,13.67v35.117h-11.92
		v-63.494H582.224z"/>
	<path fill="#FFFFFF" d="M723.977,615.984h-56.495v-11.921c16.93-17.017,27.771-28.116,32.523-33.301
		c4.23-4.748,7.083-8.358,8.551-10.82s2.201-5.507,2.201-9.135c0-3.716-1.469-6.997-4.404-9.848
		c-2.939-2.852-6.869-4.278-11.793-4.278c-4.491,0-8.121,1.32-10.883,3.954c-2.766,2.636-4.537,5.464-5.314,8.487l-10.883-4.405
		c1.468-4.667,4.533-9.071,9.198-13.219c4.667-4.146,10.712-6.218,18.143-6.218c8.208,0,14.942,2.506,20.214,7.515
		c5.269,5.011,7.904,11.015,7.904,18.012c0,8.639-4.707,17.88-14.122,27.728l-25.915,26.045h41.074L723.977,615.984L723.977,615.984
		z"/>
	<path fill="#FFFFFF" d="M792.222,604.71c-6.565,8.899-15.157,13.348-25.782,13.348s-19.224-4.448-25.786-13.346
		c-6.565-8.898-9.848-19.913-9.848-33.044c0-13.218,3.282-24.252,9.848-33.107c6.562-8.854,15.159-13.281,25.786-13.281
		s19.217,4.428,25.782,13.281c6.569,8.855,9.848,19.89,9.848,33.107C802.069,584.801,798.791,595.815,792.222,604.71z
		 M766.439,606.655c7.082,0,12.764-3.325,17.039-9.979c4.278-6.651,6.414-14.986,6.414-25.008c0-10.107-2.136-18.465-6.414-25.073
		c-4.277-6.608-9.957-9.913-17.039-9.913c-7.173,0-12.874,3.305-17.104,9.913c-4.233,6.608-6.349,14.966-6.349,25.073
		c0,10.021,2.115,18.356,6.349,25.008C753.565,603.33,759.267,606.655,766.439,606.655z"/>
	<path fill="#FFFFFF" d="M839.895,615.984h-11.919v-73.858l-17.235,7.516l-4.533-10.107l26.041-12.179h7.646V615.984z"/>
	<g>
		<path fill="#FFFFFF" d="M866.35,618.158l-10.66-5.46l41.211-74.101h-44.98l0.26-11.439h57.33v12.22L866.35,618.158z"/>
	</g>
</g>
<g id="XMLID_261_">
	<path id="XMLID_259_" fill="#FFFFFF" d="M65.1,392.275H27.317l107.965,187.157l18.95-32.753L65.1,392.275z"/>
	<path id="XMLID_258_" fill="#FFFFFF" d="M168.737,498.721L107.21,392.275H69.546l86.909,150.663l12.282-21.29
		c1.988-3.276,3.276-7.25,3.276-11.46C171.895,505.972,170.725,502.11,168.737,498.721z"/>
	<path id="XMLID_257_" fill="#FFFFFF" d="M93.171,514.045L28.37,626.224h37.783l45.97-79.544L93.171,514.045z"/>
	<path id="XMLID_256_" fill="#FFFFFF" d="M114.228,550.541l-43.63,75.683h37.665l24.916-43.048L114.228,550.541z"/>
</g>
<rect y="378.933" fill="none" width="1024" height="266.135"/>
</svg>
